<svg xmlns="http://www.w3.org/2000/svg" viewBox="0 0 910 1003"><path fill="#224665" fill-rule="evenodd" d="M512,556 508,564 496,576 489,580 485,578 485,575 492,567 503,559ZM891,606 882,555 871,522 860,499 861,520 853,581 839,630 812,689 794,718 766,754 718,799 663,834 620,853 552,873 503,894 487,905 471,921 461,937 456,952 455,696 435,698 421,705 421,755 416,785 406,807 391,821 370,829 344,830 310,822 274,808 227,781 200,760 168,729 143,698 116,652 171,649 173,646 149,626 101,575 76,541 52,500 50,500 40,523 27,565 20,610 20,659 24,688 31,716 35,715 50,693 64,678 85,721 116,767 144,799 191,839 252,875 295,893 346,910 386,929 421,953 454,987 458,987 466,976 488,955 524,930 561,912 649,880 686,861 730,832 755,811 794,769 823,727 847,678 857,687 876,714 880,716 885,700 891,663ZM546,496 548,502 544,512 526,535 525,522 529,510 540,498ZM294,489 309,506 317,520 323,538 326,560 325,739 321,755 314,769 295,787 327,799 354,801 371,793 381,775 383,763 383,701 392,691 410,679 434,671 455,669 455,619 421,623 401,630 384,639 383,558 375,528 356,505 338,495 313,489ZM638,537 636,535 612,538 592,545 575,554 574,542 567,540 554,550 554,536 535,537 547,523 556,504 555,493 549,488 542,488 533,492 524,501 519,510 516,543 488,559 478,570 476,580 480,586 486,588 501,584 514,571 524,551 535,546 547,545 540,561 541,567 547,568 565,550 567,551 568,559 575,562 611,547 635,543 638,541ZM378,448 436,508 439,508 453,491 448,494 450,495 444,501 442,499 445,493 441,499 436,491 435,484 425,481 423,476 420,476 411,465 408,464 407,469 403,465 399,464 398,466 394,463 395,461 398,462 393,454 390,452 386,454ZM196,210 197,612 202,628 210,643 225,659 234,665 261,675 299,676 299,627 271,627 265,625 252,616 245,600 245,251 242,257 239,253 242,250 242,246 241,249 239,248 240,246 238,249 234,245 234,237 227,233 200,232 199,236Z"/><path fill="#52a3a7" fill-rule="evenodd" d="M452,618 456,619 456,669 448,670 486,673 508,683 528,701 528,767 530,777 536,789 547,799 559,802 589,799 615,789 618,785 609,780 596,765 587,739 586,604 528,604 528,633 526,636 492,622ZM861,499 857,502 835,541 809,576 764,624 737,647 749,651 789,651 793,653 788,666 768,698 743,729 711,760 676,786 634,809 597,823 570,829 541,828 521,820 505,804 495,779 491,750 491,704 487,700 476,697 448,695 456,696 456,951 460,937 470,921 487,904 503,893 538,877 620,852 663,833 718,798 765,754 802,704 821,670 835,638 853,576 859,534ZM625,291 590,258 586,259 437,431 433,431 371,368 366,369 334,402 334,405 356,428 360,429 359,431 372,444 376,445 376,448 421,494 381,453 382,451 386,453 390,451 398,461 395,462 399,466 399,463 403,464 407,468 406,465 408,463 411,464 420,475 424,476 425,480 435,483 441,498 442,496 444,497 445,502 442,506ZM232,28 216,42 203,60 197,77 195,92 195,587 195,210 197,210 199,235 200,231 227,232 235,237 235,245 243,250 240,251 242,256 245,250 243,249 242,228 243,226 245,227 245,224 242,223 245,222 242,221 246,219 245,100 247,87 260,71 271,66 535,65 540,69 541,136 548,154 560,171 574,181 593,188 663,189 666,194 666,599 663,610 649,623 638,626 612,627 611,675 613,677 648,676 663,673 681,664 695,652 708,635 714,616 717,593 716,183 711,165 694,145 574,24 551,15 270,15 248,20Z"/></svg>
